# xmcd
#
# Track frame offsets:
#	150
#	14758
#	35087
#	46887
#	68547
#	88453
#	105172
#	124611
#	146143
#	163377
#	188556
#	209994
#
# Disc length: 3030 seconds
#
# Revision: 1
# Processed by: cddbd v1.4PL0 Copyright (c) Steve Scherf et al.
# Submitted via: audiograbber 1.81.03
#
DISCID=b30bd40c
DTITLE=Bird Dog Bobby and the Honey Hounds - I Ain't No Pedigree
DYEAR=1996
DGENRE=Blues
TTITLE0=Pet The Kitty
TTITLE1=Quarter Past
TTITLE2=Woman Gonna Be
TTITLE3=Thanksgiving Day
TTITLE4=High Heeled Love
TTITLE5=Backdoor Man
TTITLE6=Walkin' Alone
TTITLE7=Fool's Song
TTITLE8=My Love WIll Never Die
TTITLE9=Pretty Woman
TTITLE10=Come See Me
TTITLE11=Love Mechanic
EXTD=
EXTT0=
EXTT1=
EXTT2=
EXTT3=
EXTT4=
EXTT5=
EXTT6=
EXTT7=
EXTT8=
EXTT9=
EXTT10=
EXTT11=
PLAYORDER=
